# AST/ASF file generated using VICON BodyLanguage
# -----------------------------------------------
:version 1.10
:name VICON
:units
  mass 1.0
  length 0.45
  angle deg
:documentation
   .ast/.asf automatically generated from VICON data using
   VICON BodyBuilder and BodyLanguage model FoxedUp or BRILLIANT.MOD
:root
   order TX TY TZ RX RY RZ
   axis XYZ
   position 0 0 0  
   orientation 0 0 0 
:bonedata
  begin
     id 1 
     name lhipjoint
     direction 0.645893 -0.654526 0.392961 
     length 2.38111 
     axis 0 0 0  XYZ
  end
  begin
     id 2 
     name lfemur
     direction 0.34202 -0.939693 0  
     length 6.6822  
     axis 0 0 20  XYZ
    dof rx ry rz
    limits (-160.0 20.0)
           (-70.0 70.0)
           (-60.0 70.0)
  end
  begin
     id 3 
     name ltibia
     direction 0.34202 -0.939693 0   
     length 6.93904   
     axis 0 0 20   XYZ
    dof rx
    limits (-10.0 170.0)
  end
  begin
     id 4 
     name lfoot
     direction 0.0694967 -0.190941 0.979138   
     length 2.13616   
     axis -90 7.62852e-016 20   XYZ
    dof rx rz
    limits (-45.0 90.0)
           (-70.0 20.0)
  end
  begin
     id 5 
     name ltoes
     direction 1.535e-011 -4.2202e-011 1   
     length 1.07536   
     axis -90 7.62852e-016 20   XYZ
    dof rx
    limits (-90.0 20.0)
  end
  begin
     id 6 
     name rhipjoint
     direction -0.700219 -0.612087 0.367481   
     length 2.54621  
     axis 0 0 0  XYZ 
  end
  begin
     id 7 
     name rfemur
     direction -0.34202 -0.939693 0   
     length 6.55353   
     axis 0 0 -20   XYZ
    dof rx ry rz
    limits (-160.0 20.0)
           (-70.0 70.0)
           (-70.0 60.0)
  end
  begin
     id 8 
     name rtibia
     direction -0.34202 -0.939693 0   
     length 6.8736   
     axis 0 0 -20   XYZ
    dof rx
    limits (-10.0 170.0)
 end
 begin
     id 9 
     name rfoot
     direction -0.0679995 -0.186827 0.980037   
     length 2.1218  
     axis -90 -7.62852e-016 -20   XYZ
    dof rx rz
    limits (-45.0 90.0)
           (-20.0 70.0)
  end
  begin
     id 10 
     name rtoes
     direction -1.53589e-011 -4.21772e-011 1   
     length 1.06864   
     axis -90 -7.62852e-016 -20   XYZ
    dof rx
    limits (-90.0 20.0)
  end
  begin
     id 11 
     name lowerback
     direction -0.0416607 0.996347 -0.0745409   
     length 2.12205   
     axis 0 0 0   XYZ
    dof rx ry rz
    limits (-20.0 45.0)
           (-30.0 30.0)
           (-30.0 30.0)
  end
  begin
     id 12 
     name upperback
     direction -0.000153993 0.999276 -0.0380568   
     length 2.12759   
     axis 0 0 0   XYZ
    dof rx ry rz
    limits (-20.0 45.0)
           (-30.0 30.0)
           (-30.0 30.0)
  end
  begin
     id 13 
     name thorax
     direction 0.0187671 0.999821 -0.00241421   
     length 2.13704   
     axis 0 0 0   XYZ
    dof rx ry rz
    limits (-20.0 45.0)
           (-30.0 30.0)
           (-30.0 30.0)
  end
  begin
     id 14 
     name lowerneck
     direction 0.0268157 0.964865 0.261374   
     length 1.65253   
     axis 0 0 0   XYZ
    dof rx ry rz
    limits (-20.0 45.0)
           (-30.0 30.0)
           (-30.0 30.0)
  end
  begin
     id 15 
     name upperneck
     direction 0.00263774 0.939908 -0.341418   
     length 1.72375   
     axis 0 0 0   XYZ
    dof rx ry rz
    limits (-20.0 45.0)
           (-30.0 30.0)
           (-30.0 30.0)
  end
  begin
     id 16
     name head
     direction -0.00526001 0.989001 -0.147818  
     length 1.74878  
     axis 0 0 0   XYZ
    dof rx ry rz
    limits (-20.0 45.0)
           (-30.0 30.0)
           (-30.0 30.0)
  end
  begin
     id 17 
     name lclavicle
     direction 0.881214 0.461162 -0.103884  
     length 3.25108  
     axis 0 0 0   XYZ
    dof ry rz
    limits (-20.0 10.0)
           (0.0 20.0)
  end
  begin
     id 18 
     name lhumerus
     direction 1 -4.4899e-011 3.38092e-027   
     length 4.87408   
     axis 180 -30 -90   XYZ
    dof rx ry rz
    limits (-60.0 90.0)
           (-90.0 90.0)
           (-90.0 90.0)
  end
  begin
     id 19
     name lradius
     direction 1 -4.48931e-011 9.96288e-027   
     length 2.76729   
     axis 180 -30 -90   XYZ
    dof rx
    limits (-10.0 170.0)
  end
  begin
     id 20
     name lwrist
     direction 1 -4.4896e-011 1.50617e-026   
     length 1.38364   
     axis -9.31234e-015 90 90   XYZ
    dof ry
    limits (-180.0 0.0)
 end
  begin
     id 21 
     name lhand
     direction 1 -4.49038e-011 3.01286e-026   
     length 0.98922   
     axis -1.92217e-014 90 90   XYZ
    dof rx rz
    limits (-90.0 90.0)
           (-45.0 45.0)
  end
  begin
     id 22 
     name lfingers
     direction 1 -4.49051e-011 6.02588e-026   
     length 0.797535   
     axis -3.84436e-014 90 90   XYZ
    dof rx
    limits (0.0 90.0)
  end
  begin
     id 23
     name lthumb
     direction 0.707107 -6.34901e-011 0.707107   
     length 1.14511   
     axis -90 45 2.19363e-014   XYZ
    dof rx rz
    limits (-45.0 45.0)
           (-45.0 45.0)
  end
  begin
     id 24 
     name rclavicle
     direction -0.893894 0.441652 -0.0767889   
     length 3.29361  
     axis 0 0 0   XYZ 
    dof ry rz
    limits (-10.0 20.0)
           (-20.0 0.0)
  end
  begin
     id 25 
     name rhumerus
     direction -1 -4.48945e-011 8.0491e-028  
     length 4.71404   
     axis 180 30 90   XYZ
    dof rx ry rz
    limits (-90.0 60.0)
           (-90.0 90.0)
           (-90.0 90.0)
  end
  begin
     id 26 
     name rradius
     direction -1 -4.48986e-011 9.27795e-027   
     length 2.83468   
     axis 180 30 90   XYZ
    dof rx
    limits (-10.0 170.0)
  end
  begin
     id 27 
     name rwrist
     direction -1 -4.49029e-011 1.5064e-026   
     length 1.41734   
     axis -9.31234e-015 -90 -90   XYZ
    dof ry
    limits (-180.0 0.0)
  end
  begin
     id 28
     name rhand
     direction -1 -4.48857e-011 3.01165e-026   
     length 0.868195   
     axis -1.92217e-014 -90 -90   XYZ
    dof rx rz
    limits (-90.0 90.0)
           (-45.0 45.0)
  end
  begin
     id 29
     name rfingers
     direction -1 -4.49048e-011 6.02585e-026   
     length 0.699961   
     axis -3.84436e-014 -90 -90   XYZ
    dof rx
    limits (0.0 90.0)
  end
  begin
     id 30
     name rthumb
     direction -0.707107 -6.34854e-011 0.707107   
     length 1.00501   
     axis -90 -45 -2.19363e-014   XYZ
    dof rx rz
    limits (-45.0 45.0)
           (-45.0 45.0)
  end
:hierarchy
  begin
    root lhipjoint rhipjoint lowerback
    lhipjoint lfemur
    lfemur ltibia
    ltibia lfoot
    lfoot ltoes
    rhipjoint rfemur
    rfemur rtibia
    rtibia rfoot
    rfoot rtoes
    lowerback upperback
    upperback thorax
    thorax lowerneck lclavicle rclavicle
    lowerneck upperneck
    upperneck head
    lclavicle lhumerus
    lhumerus lradius
    lradius lwrist
    lwrist lhand lthumb
    lhand lfingers
    rclavicle rhumerus
    rhumerus rradius
    rradius rwrist
    rwrist rhand rthumb
    rhand rfingers
  end

#!OML:ASF H:\ManfredObstacles\Project 1\Capture day 2\Session 1\male.ASF
:FULLY-SPECIFIED
:DEGREES
139
root 2.02663 6.89014 21.382 -160.26 -7.29436 176.454
lowerback 50.4439 3.81097 0.544765
upperback 16.4192 -2.65842 -2.03516
thorax -2.39677 -3.66341 -1.31692
lowerneck -33.9627 -1.34565 0.978934
upperneck 18.2301 -4.47093 7.21951
head 11.6409 -0.965914 1.72258
rclavicle 1.61016e-014 1.2598e-014
rhumerus 33.7635 0.504313 -64.0563
rradius 66.097
rwrist 24.7419
rhand -31.3243 -9.45883
rfingers 7.12502
rthumb -4.59625 -39.389
lclavicle 1.61016e-014 1.2598e-014
lhumerus 32.0734 -13.3634 55.5127
lradius 74.0165
lwrist -30.7919
lhand -30.6212 14.0062
lfingers 7.12502
lthumb -3.91739 43.9499
rfemur -104.803 -0.588893 30.7198
rtibia 149.433
rfoot -46.1561 -28.9282
rtoes -24.4394
lfemur -98.8987 17.4073 -27.8026
ltibia 151.766
lfoot -29.0705 37.1448
ltoes -14.5691
140
root 2.02933 6.94732 21.317 -159.694 -7.21418 176.242
lowerback 49.5224 2.50022 0.860063
upperback 16.7578 -4.23222 -3.33359
thorax -2.06923 -4.30569 -2.28356
lowerneck -33.1449 -0.506369 0.73661
upperneck 17.7989 -3.48072 8.16214
head 11.3387 -0.467134 2.28945
rclavicle 2.22639e-014 8.84592e-015
rhumerus 36.9284 1.50854 -65.4598
rradius 64.7766
rwrist 24.2427
rhand -28.5302 -9.85245
rfingers 7.12502
rthumb -1.89796 -39.8238
lclavicle 2.22639e-014 8.84592e-015
lhumerus 32.4761 -11.0253 53.3846
lradius 73.7092
lwrist -30.2639
lhand -29.3608 13.9731
lfingers 7.12502
lthumb -2.70019 43.9357
rfemur -104.741 -0.803691 30.6204
rtibia 149.276
rfoot -45.9633 -28.8643
rtoes -24.8837
lfemur -98.8467 17.3277 -27.8841
ltibia 151.504
lfoot -28.8351 36.6387
ltoes -14.5582
141
root 2.03232 7.00331 21.2493 -159.134 -7.13311 176.036
lowerback 48.7747 1.43851 1.19656
upperback 17.0244 -5.46866 -4.45024
thorax -1.87164 -4.79809 -3.18721
lowerneck -32.654 0.169669 0.675947
upperneck 17.5183 -2.75682 8.88482
head 11.1408 -0.0916994 2.69023
rclavicle 3.18055e-015 -9.0447e-015
rhumerus 39.7871 2.03698 -66.7079
rradius 63.3381
rwrist 23.5741
rhand -25.8383 -10.1067
rfingers 7.12502
rthumb 0.701877 -40.0853
lclavicle 3.18055e-015 -9.0447e-015
lhumerus 33.1821 -9.16891 51.465
lradius 73.2732
lwrist -29.6609
lhand -27.9904 13.9336
lfingers 7.12502
lthumb -1.37659 43.9089
rfemur -104.676 -1.01279 30.5397
rtibia 149.136
rfoot -45.7568 -28.7923
rtoes -25.329
lfemur -98.7936 17.2594 -27.9351
ltibia 151.26
lfoot -28.6337 36.0772
ltoes -14.5458
142
root 2.03518 7.05805 21.1789 -158.582 -7.05391 175.833
lowerback 48.3225 0.836036 1.47859
upperback 17.1346 -6.09692 -5.13569
thorax -1.82976 -5.02237 -3.82112
lowerneck -32.4951 0.523271 0.833129
upperneck 17.3877 -2.46187 9.21253
head 11.0596 0.07388 2.8342
rclavicle -5.56597e-015 7.85199e-015
rhumerus 42.1478 1.76875 -67.4468
rradius 61.8203
rwrist 22.6699
rhand -23.3333 -10.2704
rfingers 7.12502
rthumb 3.12125 -40.2273
lclavicle -5.56597e-015 7.85199e-015
lhumerus 34.4552 -8.09247 50.1287
lradius 72.6572
lwrist -29.0634
lhand -26.5974 13.8985
lfingers 7.12502
lthumb -0.0312391 43.8783
rfemur -104.605 -1.2258 30.4654
rtibia 149.018
rfoot -45.5533 -28.6865
rtoes -25.889
lfemur -98.7443 17.1915 -27.976
ltibia 151.031
lfoot -28.4088 35.4851
ltoes -14.5161
143
root 2.0382 7.11159 21.1058 -158.04 -6.98132 175.629
lowerback 47.1327 0.701623 1.78658
upperback 18.0461 -6.13142 -5.4621
thorax -1.78205 -4.99782 -4.26732
lowerneck -32.6654 0.554911 1.19441
upperneck 17.3667 -2.58929 9.16556
head 11.0841 0.0348276 2.73669
rclavicle 3.26007e-014 2.48481e-015
rhumerus 44.0993 0.693527 -67.6698
rradius 60.2045
rwrist 21.5946
rhand -21.0709 -10.3871
rfingers 7.12502
rthumb 5.3059 -40.3007
lclavicle 3.26007e-014 2.48481e-015
lhumerus 36.3675 -7.71644 49.402
lradius 71.8292
lwrist -28.5771
lhand -25.247 13.8611
lfingers 7.12502
lthumb 1.27304 43.8371
rfemur -104.532 -1.45237 30.3891
rtibia 148.914
rfoot -45.3165 -28.5721
rtoes -26.5306
lfemur -98.7126 17.1078 -28.0341
ltibia 150.81
lfoot -28.0318 34.932
ltoes -14.4731
144
root 2.04106 7.16329 21.0297 -157.51 -6.91068 175.42
lowerback 47.122 0.933218 1.83866
upperback 17.9106 -5.70537 -5.27022
thorax -1.87534 -4.76814 -4.25062
lowerneck -33.0393 0.329992 1.57406
upperneck 17.4551 -2.9778 8.8056
head 11.1844 -0.142787 2.47753
rclavicle 5.56597e-014 3.15074e-014
rhumerus 45.7184 -0.853708 -67.343
rradius 58.5007
rwrist 20.4261
rhand -19.0926 -10.4742
rfingers 7.12502
rthumb 7.21575 -40.3312
lclavicle 5.56597e-014 3.15074e-014
lhumerus 38.6422 -7.81073 49.3537
lradius 70.8117
lwrist -28.2409
lhand -23.9984 13.7864
lfingers 7.12502
lthumb 2.47894 43.7517
rfemur -104.45 -1.69166 30.3038
rtibia 148.83
rfoot -45.0548 -28.4547
rtoes -27.2244
lfemur -98.6821 17.0101 -28.1136
ltibia 150.6
lfoot -27.4948 34.4378
ltoes -14.392
145
root 2.04422 7.21263 20.9504 -157 -6.84472 175.207
lowerback 47.1296 1.29465 1.89867
upperback 17.7841 -5.10852 -4.98318
thorax -1.93865 -4.46138 -4.20602
lowerneck -33.5197 0.0230922 2.06656
upperneck 17.5796 -3.50715 8.3409
head 11.3134 -0.383835 2.1349
rclavicle -3.89618e-014 -2.93207e-015
rhumerus 47.1719 -2.665 -66.9836
rradius 56.6867
rwrist 19.4519
rhand -17.3757 -10.5186
rfingers 7.12502
rthumb 8.87282 -40.3121
lclavicle -3.89618e-014 -2.93207e-015
lhumerus 41.1402 -8.13513 49.4676
lradius 69.6355
lwrist -28.0161
lhand -22.8118 13.7156
lfingers 7.12502
lthumb 3.62487 43.6645
rfemur -104.347 -1.93853 30.225
rtibia 148.777
rfoot -44.7316 -28.3746
rtoes -27.8252
lfemur -98.6323 16.9008 -28.1996
ltibia 150.408
lfoot -26.8352 33.9984
ltoes -14.256
146
root 2.04785 7.25929 20.8672 -156.516 -6.78103 175.002
lowerback 46.9139 1.30377 1.80004
upperback 17.6823 -5.04464 -4.90687
thorax -1.98818 -4.41461 -4.10072
lowerneck -33.4763 -0.00810207 2.0695
upperneck 17.565 -3.50458 8.22072
head 11.2957 -0.39711 2.08934
rclavicle 6.91771e-014 4.82053e-015
rhumerus 48.986 -3.37176 -67.0965
rradius 54.7319
rwrist 18.7581
rhand -15.916 -10.5248
rfingers 7.12502
rthumb 10.2812 -40.2536
lclavicle 6.91771e-014 4.82053e-015
lhumerus 42.7456 -7.67031 49.4136
lradius 68.4107
lwrist -27.7983
lhand -21.6729 13.6065
lfingers 7.12502
lthumb 4.72466 43.5338
rfemur -104.209 -2.18446 30.1661
rtibia 148.75
rfoot -44.357 -28.3304
rtoes -28.3154
lfemur -98.5608 16.7914 -28.2721
ltibia 150.239
lfoot -26.1019 33.5788
ltoes -14.086
147
root 2.05218 7.30303 20.78 -156.057 -6.72113 174.803
lowerback 46.6886 1.34905 1.68745
upperback 17.5838 -4.94028 -4.79575
thorax -2.02369 -4.35183 -3.96836
lowerneck -33.3986 -0.0534372 2.08281
upperneck 17.5242 -3.51613 8.08382
head 11.2623 -0.419665 2.03245
rclavicle -3.26007e-014 -4.64659e-014
rhumerus 50.712 -4.07965 -67.3064
rradius 52.6985
rwrist 18.4033
rhand -14.7075 -10.473
rfingers 7.12502
rthumb 11.4468 -40.1405
lclavicle -3.26007e-014 -4.64659e-014
lhumerus 44.3463 -7.27423 49.4381
lradius 67.0969
lwrist -27.5786
lhand -20.5731 13.4908
lfingers 7.12502
lthumb 5.78655 43.3918
rfemur -104.033 -2.42043 30.1436
rtibia 148.759
rfoot -43.9236 -28.3607
rtoes -28.6268
lfemur -98.4472 16.6926 -28.303
ltibia 150.098
lfoot -25.4091 33.1251
ltoes -13.8946
148
root 2.05723 7.34428 20.6888 -155.624 -6.66998 174.615
lowerback 46.4622 1.42305 1.56925
upperback 17.4878 -4.80135 -4.65486
thorax -2.05003 -4.27491 -3.81556
lowerneck -33.2956 -0.121817 2.08231
upperneck 17.4589 -3.54876 7.94928
head 11.2164 -0.453537 1.97423
rclavicle -7.95139e-016 -8.89561e-015
rhumerus 52.3538 -4.78636 -67.6312
rradius 50.5969
rwrist 18.4994
rhand -13.7254 -10.3672
rfingers 7.12502
rthumb 12.3939 -39.9797
lclavicle -7.95139e-016 -8.89561e-015
lhumerus 45.942 -6.93892 49.5344
lradius 65.7121
lwrist -27.3812
lhand -19.5026 13.3679
lfingers 7.12502
lthumb 6.81996 43.238
rfemur -103.818 -2.65073 30.1591
rtibia 148.795
rfoot -43.4381 -28.4544
rtoes -28.7695
lfemur -98.2938 16.5984 -28.2946
ltibia 149.98
lfoot -24.7162 32.6531
ltoes -13.6714
